<?xml version="1.0" encoding="UTF-8"?>
<svg id="Layer_2" xmlns="http://www.w3.org/2000/svg" viewBox="0 0 470 312.39">
  <defs>
    <style>
      .cls-1, .cls-2 {
        fill: #f4f1ea;
      }

      .cls-2 {
        fill-rule: evenodd;
      }
    </style>
  </defs>
  <g id="_x31_0">
    <g>
      <g>
        <path class="cls-1" d="M107.05,282.94v-17.84h5.05c2.11,0,3.83.36,5.19,1.07,1.35.71,2.35,1.74,3.01,3.08.65,1.34.98,2.95.98,4.82s-.33,3.42-.98,4.74c-.65,1.33-1.66,2.34-3.01,3.06s-3.08,1.07-5.19,1.07h-5.05ZM108.83,281.46h3.26c1.8,0,3.24-.3,4.31-.89,1.07-.59,1.84-1.44,2.32-2.55s.71-2.42.71-3.95-.24-2.88-.71-4-1.25-1.98-2.32-2.59c-1.07-.6-2.51-.9-4.31-.9h-3.26v14.88Z"/>
        <path class="cls-1" d="M123.99,282.94v-17.84h1.78v17.84h-1.78Z"/>
        <path class="cls-1" d="M129.24,282.94v-17.84h5.5c1.38,0,2.5.23,3.38.69.87.46,1.52,1.07,1.92,1.85s.61,1.65.61,2.64-.21,1.82-.64,2.61c-.42.79-1.08,1.42-1.96,1.89-.88.47-2.03.7-3.44.7h-3.59v7.47h-1.78ZM131.03,274.02h3.59c1.44,0,2.51-.35,3.19-1.04.68-.7,1.02-1.6,1.02-2.7s-.33-2.03-.99-2.69c-.66-.65-1.74-.98-3.24-.98h-3.57v7.42ZM138.72,282.94l-4-8.03h2.04l4.1,8.03h-2.14Z"/>
        <path class="cls-1" d="M143.72,282.94v-17.84h10.83v1.48h-9.05v6.65h8.28v1.48h-8.28v6.75h9.05v1.48h-10.83Z"/>
        <path class="cls-1" d="M165.17,283.24c-1.72,0-3.2-.39-4.46-1.16-1.26-.77-2.23-1.85-2.9-3.24-.68-1.38-1.02-2.99-1.02-4.83s.34-3.44,1.02-4.83c.68-1.38,1.65-2.46,2.92-3.24,1.27-.77,2.75-1.16,4.45-1.16,2,0,3.63.47,4.88,1.42,1.25.94,2.05,2.27,2.41,3.99h-1.96c-.27-1.16-.85-2.08-1.73-2.79s-2.08-1.06-3.59-1.06c-1.31,0-2.46.31-3.44.92-.99.61-1.75,1.49-2.29,2.64-.54,1.15-.82,2.52-.82,4.12s.27,2.97.82,4.12c.54,1.15,1.31,2.03,2.29,2.64.98.61,2.13.92,3.44.92,1.51,0,2.71-.35,3.58-1.04.88-.7,1.46-1.61,1.75-2.75h1.96c-.37,1.68-1.18,2.99-2.41,3.94-1.23.94-2.86,1.41-4.88,1.41Z"/>
        <path class="cls-1" d="M182.83,283.24c-1.72,0-3.2-.39-4.46-1.16-1.26-.77-2.23-1.85-2.9-3.24-.68-1.38-1.02-2.99-1.02-4.83s.34-3.44,1.02-4.83c.68-1.38,1.65-2.46,2.92-3.24,1.27-.77,2.75-1.16,4.45-1.16,2,0,3.63.47,4.88,1.42,1.25.94,2.05,2.27,2.41,3.99h-1.96c-.27-1.16-.85-2.08-1.73-2.79s-2.08-1.06-3.59-1.06c-1.31,0-2.46.31-3.44.92-.99.61-1.75,1.49-2.29,2.64-.54,1.15-.82,2.52-.82,4.12s.27,2.97.82,4.12c.54,1.15,1.31,2.03,2.29,2.64.98.61,2.13.92,3.44.92,1.51,0,2.71-.35,3.58-1.04.88-.7,1.46-1.61,1.75-2.75h1.96c-.37,1.68-1.18,2.99-2.41,3.94-1.23.94-2.86,1.41-4.88,1.41Z"/>
        <path class="cls-1" d="M192.85,282.94v-17.84h1.78v17.84h-1.78Z"/>
        <path class="cls-1" d="M205.94,283.24c-1.7,0-3.19-.39-4.48-1.16s-2.3-1.85-3.02-3.24-1.08-2.99-1.08-4.83.36-3.42,1.08-4.8,1.73-2.47,3.02-3.25,2.79-1.17,4.48-1.17,3.27.39,4.56,1.17c1.29.78,2.29,1.86,2.99,3.25.7,1.38,1.06,2.99,1.06,4.8s-.35,3.44-1.06,4.83c-.71,1.38-1.7,2.46-2.99,3.24-1.29.77-2.81,1.16-4.56,1.16ZM205.97,281.69c1.34,0,2.52-.31,3.54-.92,1.02-.61,1.81-1.49,2.37-2.64.56-1.15.84-2.52.84-4.12s-.28-2.96-.84-4.1c-.56-1.14-1.35-2.01-2.37-2.62-1.02-.61-2.2-.92-3.54-.92s-2.52.31-3.54.92c-1.02.61-1.81,1.49-2.38,2.62s-.85,2.51-.85,4.1.28,2.97.85,4.12c.57,1.15,1.36,2.03,2.38,2.64,1.02.61,2.2.92,3.54.92ZM203.52,264l-.18-1.3,4.97-3.24.25,1.55-5.05,2.98Z"/>
        <path class="cls-1" d="M217.28,282.94v-17.84h1.78l9.86,14.86v-14.86h1.78v17.84h-1.78l-9.86-14.88v14.88h-1.78Z"/>
      </g>
      <g>
        <path class="cls-1" d="M114.69,310.28c-1.72,0-3.2-.38-4.46-1.16-1.26-.77-2.23-1.85-2.9-3.24-.68-1.38-1.02-2.99-1.02-4.83s.34-3.44,1.02-4.83c.68-1.38,1.65-2.46,2.92-3.24s2.75-1.16,4.45-1.16c2,0,3.63.47,4.88,1.42,1.25.94,2.05,2.27,2.41,3.99h-1.96c-.27-1.15-.85-2.08-1.73-2.79s-2.08-1.06-3.59-1.06c-1.31,0-2.46.31-3.44.92-.99.61-1.75,1.49-2.29,2.64-.54,1.15-.82,2.52-.82,4.12s.27,2.97.82,4.12c.54,1.15,1.31,2.03,2.29,2.64.98.61,2.13.92,3.44.92,1.51,0,2.71-.35,3.58-1.04.88-.7,1.46-1.62,1.75-2.75h1.96c-.37,1.68-1.18,2.99-2.41,3.94-1.23.94-2.86,1.41-4.88,1.41Z"/>
        <path class="cls-1" d="M124.71,309.97v-17.84h5.5c1.38,0,2.5.23,3.38.69.87.46,1.52,1.07,1.92,1.85s.61,1.65.61,2.64-.21,1.82-.64,2.61c-.42.79-1.08,1.42-1.96,1.88-.88.47-2.03.7-3.44.7h-3.59v7.47h-1.78ZM126.49,301.05h3.59c1.44,0,2.51-.35,3.19-1.04.68-.7,1.02-1.6,1.02-2.7s-.33-2.03-.99-2.69-1.74-.98-3.24-.98h-3.57v7.41ZM134.19,309.97l-4-8.03h2.04l4.1,8.03h-2.14Z"/>
        <path class="cls-1" d="M139.18,309.97v-17.84h10.83v1.48h-9.05v6.65h8.28v1.48h-8.28v6.75h9.05v1.48h-10.83Z"/>
        <path class="cls-1" d="M151.84,309.97l6.57-17.84h1.83l6.57,17.84h-1.89l-5.61-15.49-5.61,15.49h-1.89ZM154.85,305.15l.54-1.48h7.87l.54,1.48h-8.94Z"/>
        <path class="cls-1" d="M171.29,309.97v-16.36h-5.35v-1.48h12.49v1.48h-5.35v16.36h-1.78Z"/>
        <path class="cls-1" d="M180.72,309.97v-17.84h1.78v17.84h-1.78Z"/>
        <path class="cls-1" d="M191.37,309.97l-6.75-17.84h1.94l5.84,15.9,5.91-15.9h1.89l-6.78,17.84h-2.04Z"/>
        <path class="cls-1" d="M198.63,309.97l6.57-17.84h1.83l6.57,17.84h-1.89l-5.61-15.49-5.61,15.49h-1.89ZM201.64,305.15l.54-1.48h7.87l.54,1.48h-8.94Z"/>
      </g>
      <g>
        <path class="cls-1" d="M353.51,282.94l6.57-17.84h1.83l6.57,17.84h-1.89l-5.61-15.49-5.61,15.49h-1.89ZM356.52,278.12l.54-1.48h7.87l.54,1.48h-8.94Z"/>
        <path class="cls-1" d="M370.84,282.94v-17.84h5.61c1.38,0,2.51.23,3.41.68.9.45,1.56,1.06,1.99,1.83.42.77.64,1.65.64,2.64s-.21,1.84-.64,2.62c-.43.78-1.08,1.4-1.98,1.86s-2.03.69-3.43.69h-3.82v7.52h-1.78ZM372.62,273.89h3.82c1.51,0,2.59-.33,3.24-.98.65-.65.97-1.54.97-2.66s-.32-2.05-.97-2.69c-.65-.64-1.72-.96-3.24-.96h-3.82v7.29Z"/>
        <path class="cls-1" d="M384.98,282.94v-17.84h1.78v16.39h8.43v1.45h-10.22Z"/>
        <path class="cls-1" d="M397.75,282.94v-17.84h1.78v17.84h-1.78Z"/>
        <path class="cls-1" d="M410.64,283.24c-1.72,0-3.2-.39-4.46-1.16-1.26-.77-2.23-1.85-2.9-3.24-.68-1.38-1.02-2.99-1.02-4.83s.34-3.44,1.02-4.83c.68-1.38,1.65-2.46,2.92-3.24,1.27-.77,2.75-1.16,4.45-1.16,2,0,3.63.47,4.88,1.42,1.25.94,2.05,2.27,2.41,3.99h-1.96c-.27-1.16-.85-2.08-1.73-2.79s-2.08-1.06-3.59-1.06c-1.31,0-2.46.31-3.44.92-.99.61-1.75,1.49-2.29,2.64-.54,1.15-.82,2.52-.82,4.12s.27,2.97.82,4.12c.54,1.15,1.31,2.03,2.29,2.64.98.61,2.13.92,3.44.92,1.51,0,2.71-.35,3.58-1.04.88-.7,1.46-1.61,1.75-2.75h1.96c-.37,1.68-1.18,2.99-2.41,3.94-1.23.94-2.86,1.41-4.88,1.41Z"/>
        <path class="cls-1" d="M419.02,282.94l6.57-17.84h1.83l6.57,17.84h-1.89l-5.61-15.49-5.61,15.49h-1.89ZM422.03,278.12l.54-1.48h7.87l.54,1.48h-8.94Z"/>
        <path class="cls-1" d="M436.35,282.94v-17.84h5.05c2.11,0,3.83.36,5.19,1.07,1.35.71,2.35,1.74,3.01,3.08.65,1.34.98,2.95.98,4.82s-.33,3.42-.98,4.74c-.65,1.33-1.66,2.34-3.01,3.06s-3.08,1.07-5.19,1.07h-5.05ZM438.14,281.46h3.26c1.8,0,3.24-.3,4.31-.89,1.07-.59,1.84-1.44,2.32-2.55s.71-2.42.71-3.95-.24-2.88-.71-4-1.25-1.98-2.32-2.59c-1.07-.6-2.51-.9-4.31-.9h-3.26v14.88Z"/>
        <path class="cls-1" d="M450.83,282.94l6.57-17.84h1.83l6.57,17.84h-1.89l-5.61-15.49-5.61,15.49h-1.89ZM453.83,278.12l.54-1.48h7.87l.54,1.48h-8.94Z"/>
      </g>
      <g>
        <path class="cls-1" d="M336.89,309.97l6.57-17.84h1.83l6.57,17.84h-1.89l-5.61-15.49-5.61,15.49h-1.89ZM339.9,305.15l.54-1.48h7.87l.54,1.48h-8.94Z"/>
        <path class="cls-1" d="M354.22,309.97v-17.84h1.78v16.38h8.43v1.45h-10.22Z"/>
        <path class="cls-1" d="M373.48,309.97v-17.84h1.78v16.38h8.43v1.45h-10.22Z"/>
        <path class="cls-1" d="M384.72,291.04l-.18-1.3,4.97-3.24.25,1.55-5.05,2.98ZM386.25,309.97v-17.84h1.78v17.84h-1.78Z"/>
        <path class="cls-1" d="M399.35,310.28c-1.7,0-3.19-.38-4.48-1.16s-2.3-1.85-3.02-3.24-1.08-2.99-1.08-4.83.36-3.42,1.08-4.8,1.73-2.47,3.02-3.25,2.79-1.17,4.48-1.17,3.27.39,4.56,1.17c1.29.78,2.29,1.86,2.99,3.25.7,1.38,1.06,2.99,1.06,4.8s-.35,3.45-1.06,4.83c-.71,1.38-1.7,2.46-2.99,3.24-1.29.77-2.81,1.16-4.56,1.16ZM399.37,308.72c1.34,0,2.52-.3,3.54-.92,1.02-.61,1.81-1.49,2.37-2.64.56-1.15.84-2.52.84-4.12s-.28-2.96-.84-4.1-1.35-2.01-2.37-2.62c-1.02-.61-2.2-.92-3.54-.92s-2.52.31-3.54.92c-1.02.61-1.81,1.49-2.38,2.62-.57,1.14-.85,2.51-.85,4.1s.28,2.97.85,4.12c.57,1.15,1.36,2.03,2.38,2.64,1.02.61,2.2.92,3.54.92ZM404.19,312.39l-5.99-9.38h2.27l5.99,9.38h-2.27Z"/>
        <path class="cls-1" d="M416.96,310.28c-1.21,0-2.3-.24-3.27-.71-.98-.47-1.75-1.22-2.33-2.23-.58-1.01-.87-2.3-.87-3.86v-11.34h1.78v11.37c0,1.21.2,2.2.6,2.97.4.77.96,1.34,1.67,1.69.71.36,1.53.54,2.45.54s1.75-.18,2.45-.54c.7-.36,1.24-.92,1.63-1.69.39-.77.59-1.76.59-2.97v-11.37h1.78v11.34c0,1.56-.29,2.85-.87,3.86-.58,1.01-1.35,1.76-2.33,2.23-.98.47-2.07.71-3.27.71Z"/>
        <path class="cls-1" d="M426.69,309.97v-17.84h1.78v17.84h-1.78Z"/>
        <path class="cls-1" d="M431.94,309.97v-17.84h5.05c2.11,0,3.83.36,5.19,1.07s2.35,1.74,3.01,3.08c.65,1.34.98,2.95.98,4.81s-.33,3.42-.98,4.74c-.65,1.33-1.66,2.34-3.01,3.06-1.35.71-3.08,1.07-5.19,1.07h-5.05ZM433.72,308.49h3.26c1.8,0,3.24-.3,4.31-.89,1.07-.59,1.84-1.44,2.32-2.55.48-1.11.71-2.42.71-3.95s-.24-2.88-.71-4-1.25-1.98-2.32-2.59-2.51-.9-4.31-.9h-3.26v14.88Z"/>
        <path class="cls-1" d="M456.73,310.28c-1.7,0-3.19-.38-4.48-1.16s-2.3-1.85-3.02-3.24-1.08-2.99-1.08-4.83.36-3.42,1.08-4.8,1.73-2.47,3.02-3.25,2.79-1.17,4.48-1.17,3.27.39,4.56,1.17c1.29.78,2.29,1.86,2.99,3.25.7,1.38,1.06,2.99,1.06,4.8s-.35,3.45-1.06,4.83c-.71,1.38-1.7,2.46-2.99,3.24-1.29.77-2.81,1.16-4.56,1.16ZM456.76,308.72c1.34,0,2.52-.3,3.54-.92,1.02-.61,1.81-1.49,2.37-2.64.56-1.15.84-2.52.84-4.12s-.28-2.96-.84-4.1-1.35-2.01-2.37-2.62c-1.02-.61-2.2-.92-3.54-.92s-2.52.31-3.54.92c-1.02.61-1.81,1.49-2.38,2.62-.57,1.14-.85,2.51-.85,4.1s.28,2.97.85,4.12c.57,1.15,1.36,2.03,2.38,2.64,1.02.61,2.2.92,3.54.92Z"/>
      </g>
      <path class="cls-2" d="M184.17,94.68c-1.35.58-20.07,6.41-17.54,21.01,3.11,17.94,27.63,10.06,27.7,2.56.02-2.15.26-26.43-.13-26.93-.7-.9-.99-.14-10.03,3.36ZM212.59,134.84c-1.45.03-8.24.85-13.42-3.02-4.31-3.22-3.4-9.43-5.53-6.66-12.11,15.82-48.88,12.9-46.31-11,1.9-17.74,30.35-21.01,45.87-26.79.96-.36,1.63-.55.75-12.01-1.53-19.89-22.48-18.45-24.6-8.17-.74,3.59,1.86,15.61-9.57,15.45-14.92-.21-14.71-21.99,15.36-26.01,32.69-4.37,36.74,16.72,37.33,19.79,2.65,13.81-1.76,44.84,3.17,49.33,2.57,2.34,10.97,1.31,11.1-3.93.3-12.89-.5-13.79,1.22-13.84,3.98-.12,1.95,3.93,8.83,13.48,12.58,17.45,36.07,10.23,34.47-3.22-2.31-19.38-46.4-13.43-44.21-42.33,1.17-15.41,23.33-25.84,51.99-15.69,2.44.86,2.11,1.51,2.09,12.09-.01,3.94.72,8.05-2.04,7.73-2.73-.32-3.96-15.2-16.53-19.31-13.6-4.44-25.4,5.96-19.1,16.09,7.77,12.48,50.15,12.84,43.09,40.92-5.59,22.19-43.79,19.29-59.23,11.84-2.57-1.24-2.42.2-4.66,1.71-4.69,3.15-9.59,3.47-10.06,3.56Z"/>
      <path class="cls-2" d="M435.34,138.66c.11-.24,1.24-.45,2.39-.53,1.25-.09,2.52-.03,2.52.29.01,1.21.13.86.13,4.31,0,12.43-.4,13.33,1.53,13.36,20.36.32,21.69-.7,21.89,1.45.45,4.65-2.81,2.35-21.87,2.76-2.15.05-1.57,2.65-1.57,2.84-.02,51.43.2,51.46,1.06,54.08,3.23,9.8,13.95,7.55,14.1,7.51,5.49-1.37,6.86-3.67,8.12-4.81.85-.78,3.72.64,2.44,2.26-13.09,16.64-33.14,10.99-38.15,6.59-9.51-8.35-5.8-21.86-6.43-67.16-.03-1.8-3.33-1.27-9.7-1.31-3.16-.02-2.11-2.87-.61-3.38,2.6-.88,18.13-4.73,24.15-18.27Z"/>
      <path class="cls-2" d="M197.24,158.88c-9.08,2.31-4.3,8.95,4.01,28.77,8.3,19.8,8.2,21.6,9.58,20.34.03-.02,8.7-20.98,9.46-22.81,4.42-10.66,5.22-10.82,4.01-13.79-3.27-8.06-4.18-10.3-10.55-12.83-.56-.22-2.27-2.43,1.14-2.47,2.72-.03,32.68-.36,34.02.09.29.1,2.88,1.77-2.2,2.87-9.11,1.98-.82,16.68,1.81,22.94.89,2.12,11.03,26.29,11.33,26.49,1.08.73.59-.53,6.08-13.22,13.13-30.4,13.61-34.51,4.05-36.57-2.01-.43-1.61-2.58.05-2.61,4.83-.1,29.15,1.65,34.45-7.82,2.94-5.24-9.13-9.65-1.26-19.13,7.71-9.28,29.46.53,16.56,15.98-9.97,11.94-29.11,7.66-38.71,27.31-1.93,3.96-2.74,5.62-21.71,50.47-3.41,8.05-2.92,9.84-6.94,9.54-2.55-.19-1.76-1.35-13.3-27.37-10.15-22.91-10.65-27.72-12.05-23.98-1.04,2.8-20.92,50.3-21.42,50.82-.6.63-4.04.93-4.72-.49-12.6-26.41-26.95-65.79-32.83-70.1-4.36-3.2-7.9-2.9-6.44-4.73.48-.61.71-.56,29.38-.52,3.11,0,8.97-.72,7.93,1.96-.28.73-1.54.79-1.73.84Z"/>
      <path class="cls-2" d="M339.23,72c-2.91-5.85-6.51-9.83-14.68-11.91-.77-.07-1.52-.24-2.29-.31-5.74-.54-13.12,1.99-15.11,6.98-6.01,15.03,17.95,18.97,32.05,26.65,19.21,10.46,15.9,33.41-5.07,39.9-4.56,1.41-6.59,2.49-7.1-1.82-.15-1.26,6.21-2.5,8.15-8.2,5.58-16.41-21.37-19.44-34.88-28.74-10.53-7.24-9.46-18.58-7.39-23.73,6.79-16.88,30.98-15.68,44.05-12.75,9.14,0,23.65-.83,27.61-7.89,1.05-1.86.2-3.61-.97-5.53-3.75-3.57-4.85-9.23-.14-13.78,2.16-2.47,5.34-3.52,8.55-3.42,3.27-.1,6.09,1.09,8.16,2.94,2.28,1.84,3.79,4.47,3.7,7.66.04,1.6-.32,3.19-1.18,4.64-.64,1.39-1.57,2.84-2.82,4.34-8.54,10.22-23.8,8.55-34.04,20.2.02,4.81-.17,10.82-.2,11.69-.05,1.51-2.89,1.24-3.23.4-.62-1.53-1.2-2.98-1.79-4.34-.45.05-.82-1.21-1.38-3.01Z"/>
      <path class="cls-2" d="M68.28,134.88c-8.03.55-37.43,3.28-57.68-21.39C-10.44,87.84-3.77,25.31,63.76,25.67c14.65.08,35.3,6.17,35.67,8.88,1.41,10.27,2.24,21.58,2.37,23.46.18,2.42.46,3.21-2.26,3.4-3.44.23-.63-7.81-13.93-21.47-17.58-18.06-58.98-15.36-64,31.85-3.32,31.2,15.02,67.95,54.06,56.99,1.85-.52,1.55,4.86-1.12,5.26-.5.08-.5.06-6.27.84Z"/>
      <path class="cls-2" d="M108.04,129.25c-23.11,3.01-24.4,23.19-27.23,23.73-3.14.6-2.9-.76-2.5-3.64,1.05-7.42,2.67-21.12,2.89-22.96.2-1.71,1.16-1.29,19.48-1.36,5.71-.02,43.66.03,43.73.04,1.09.15,4.35,4.18,1.75,4.09-4.14-.15-8.54-.61-8.68.81-.05.53-.05,81.72-.03,82.19.36,13.07,2.83,14.76,11.49,16.52,2.03.41,1.63,2.63.03,2.68-3.36.11-3.34-.04-42.04,0-4.09,0-2.06-2.45-1.22-2.62,12.81-2.49,11.83-6.31,11.79-41.1-.07-57.73.36-58.02-.46-58.52-.78-.47-8.28.07-9,.12Z"/>
      <path class="cls-2" d="M112.32,29.41c22.95-6.21,23.18-7.96,24.72-6.6.14.12.45.16.38,38.26-.1,59.6.16,59.78-.4,60.19-.69.5-18.13.2-18.21.18-1.31-.35-.62-.93-.66-21.58-.1-43.06.44-56.31-.72-61.47-5.89-5.86-13.18-7.96-19.85-10.58-4.87-1.91-9.42-4.1-12.87-8.23-12.9-15.46,8.85-25.26,16.55-15.98,7.87,9.48-4.2,13.89-1.26,19.13,2.04,3.63,6.87,5.61,12.33,6.68Z"/>
      <path class="cls-2" d="M370.01,60.07c9.37-2.79,12.22-4.02,12.84-2.99.36.6-.37,55.09.41,64.72.72,8.96,8.49,8.33,8.98,9.69.87,2.45-5.63,1.69-5.75,1.69-30.91-.08-32.03.47-32.07-1.15-.07-2.89,8.75.65,9.19-13.28.1-2.87.04-40.25.02-40.82-.32-13.99-8.46-10.06-9.09-12.73-.34-1.44.72-1.13,15.47-5.12Z"/>
      <path class="cls-2" d="M296.65,164.37c-6.74-2.05,4.46-3.78,9.21-5.14,14.64-4.18,14.6-4.27,15.88-4.62,1.59-.44,1.13,2.94,1.13,10.59.01,57.8-.35,58.57,3.45,61.69,1.88,1.54,7.84,2.13,5.62,4.15-.39.35-4.7.33-5.11.33-30.64-.14-32.47.96-32.19-1.35.19-1.61.88-1.16,2.59-1.67,7.23-2.15,6.55-8.98,6.53-23.85-.06-35.14,1.03-37.53-7.11-40.12Z"/>
      <path class="cls-2" d="M293.88,130.47c-1.61-.72-2.27-.35-2.36-2.02-.45-7.71-.11-17.86-.06-19.41.04-1.43,3.04-1.56,3.68-.03,3.21,7.62,3.33,7.54,7.91,14.3.9,1.34-2.76,2-4.97,6.25-1.1,2.13-1.74,1.7-4.2.91Z"/>
      <path class="cls-2" d="M88.26,121.65c-.24-.47-.58-.48-.19-.89,7.91-8.43,10.41-15.49,12.3-19.78.91-2.06,3.59-.53,3.73-.1.5,1.49.06,1.53-2.54,19.36-.33,2.27-1.62,1.12-13.3,1.41Z"/>
      <path class="cls-2" d="M172.82,138.47c1.68-.03,1.79-.27,2.26.21.58.59.17.68,1.57,9.7.51,3.28,1.56,4.98-2.12,4.7-1.99-.15-2.65-6.67-8.16-13.27-1.86-2.23,1.02-1.13,6.45-1.33Z"/>
      <path class="cls-2" d="M448.07,72.03c-.12-1.05-1.03-9.05-7.66-11.28-29.29-9.88-39.95,58.46,0,63.09,18.81,2.18,26.69-11.44,26.69-11.44.22-.25,4.66-2.11,2.12,3.54-14.65,32.49-75.09,23.84-76.33-17.06-1.13-37.59,40.96-51.35,65.11-37.58,19.56,11.16,5.62,28.43-5.8,21.61-5.19-3.1-4.1-9.93-4.13-10.87Z"/>
      <path class="cls-2" d="M398.27,162.11c.3,13.85.67,18.93-2.54,16.77-.76-.51-5.51-26.47-29.19-20.89-6.79,1.6-17.12,13.65,2.48,22.53,13.18,5.97,42.67,12.64,34.59,36.6-3.34,9.92-19.44,19.33-43.74,15.29-1.34-.22-1.23-.64-16.62-3.39-1.96-.35-1.38-1.2-2.21-22.29-.02-.32,2.12-4.56,4.16,1.4,10.05,29.37,45.67,26.23,41.97,6.77-2.49-13.1-42.45-15.04-45.31-34.99-2.77-19.36,17.26-29.65,41.9-25.01,13.68,2.58,14.06,2.37,14.39,3.4.19.61.1.6.12,3.8Z"/>
      <path class="cls-2" d="M36.41,150.69c4.02.3,7.42,3.37,7.98,7.52.26,1.96-.15,3.86-1.06,5.46-.92,2.35-1.94,4.4-.65,6.29,5.31,7.76,21.42,4.31,25.24,3.88,12.12-1.36,20.11,5.6,21.54,16.14,1.42,10.55-5.99,20.27-16.54,21.69-10.55,1.42-20.27-5.99-21.69-16.54-.5-3.74-.24-6.21.19-8,.8-3.34,1.7-4.7.15-6.87-3.26-4.57-13.94-3.93-21.33-11.45-9.64-9.79-1.24-18.76,6.17-18.14Z"/>
    </g>
  </g>
</svg>